<svg xmlns="http://www.w3.org/2000/svg" xmlns:xlink="http://www.w3.org/1999/xlink" style="margin:auto;background:transparent;display:block;" width="75px" height="75px" viewBox="0 0 100 100" preserveAspectRatio="xMidYMid">
<g transform="rotate(-127.005 50 50)"><path d="M50 50Q90 30 90 50 A40 40 0 0 0 74.93959207434933 18.726740701278803 Q59.302962424988735 6.256944664104136 50 50" stroke="none" fill="#e15b64"></path><path d="M50 50Q90.57622172370995 68.80346326154653 74.93959207434935 81.2732592987212 A40 40 0 0 0 90 50 Q90 30 50 50" stroke="none" fill="#f47e60"></path><path d="M50 50Q60.5977208853839 93.44753516639923 41.09916264174743 88.99711648727295 A40 40 0 0 0 74.93959207434935 81.2732592987212 Q90.57622172370995 68.80346326154653 50 50" stroke="none" fill="#f8b26a"></path><path d="M50 50Q22.638920066254403 85.37472692275071 13.961245283903239 67.35534956470232 A40 40 0 0 0 41.09916264174743 88.99711648727295 Q60.5977208853839 93.44753516639923 50 50" stroke="none" fill="#abbd81"></path><path d="M50 50Q5.283570501552072 50.664027793346065 13.961245283903231 32.64465043529768 A40 40 0 0 0 13.961245283903239 67.35534956470232 Q22.638920066254403 85.37472692275071 50 50" stroke="none" fill="#849b87"></path><path d="M50 50Q21.60060439811094 15.453302191853345 41.09916264174741 11.002883512727053 A40 40 0 0 0 13.961245283903231 32.64465043529768 Q5.283570501552072 50.664027793346065 50 50" stroke="none" fill="#6a89a8"></path><path d="M50 50Q59.302962424988735 6.256944664104136 74.93959207434933 18.726740701278803 A40 40 0 0 0 41.09916264174741 11.002883512727053 Q21.60060439811094 15.453302191853345 50 50" stroke="none" fill="#7796c9"></path><animateTransform attributeName="transform" type="rotate" values="0 50 50;-360 50 50" times="0;1" dur="1.5s" repeatCount="indefinite"></animateTransform></g>
</svg>